<svg width="41" height="41" viewBox="0 0 41 41" fill="none" xmlns="http://www.w3.org/2000/svg">
<path d="M4.50323 30.3356V38.3339C4.50323 39.8076 5.69568 41 7.16933 41H33.8307C35.3043 41 36.4968 39.8076 36.4968 38.3339V30.3356C36.4968 25.9173 32.9196 22.3372 28.4985 22.3372H27.8147C27.4562 22.3372 27.1687 22.6287 27.1344 22.9856C26.8082 26.3629 23.9626 29.0026 20.4999 29.0026C17.0371 29.0026 14.1916 26.3629 13.8656 22.9856C13.8313 22.6287 13.5438 22.3372 13.1852 22.3372H12.5015C8.08566 22.3372 4.50323 25.9173 4.50323 30.3356Z" fill="black"/>
<path d="M20.4999 21.9208C25.7956 21.9208 30.0903 17.0132 30.0903 10.9603C30.0903 4.90735 25.7956 0 20.4999 0C15.2043 0 10.9096 4.90757 10.9096 10.9605C10.9096 17.0135 15.2043 21.9208 20.4999 21.9208ZM20.4999 10.9605C23.002 10.9605 25.0892 9.6949 25.7473 7.97434C26.7321 9.16099 27.3501 10.6662 27.3501 12.3307C27.3501 16.1145 24.2808 19.1809 20.4999 19.1809C16.7162 19.1809 13.6497 16.1145 13.6497 12.3307C13.6497 10.6662 17.9978 10.9605 20.4999 10.9605Z" fill="black"/>
</svg>
