<svg width="41" height="41" viewBox="0 0 41 41" fill="none" xmlns="http://www.w3.org/2000/svg">
<path d="M27.9287 0H13.0721C11.513 0 10.2502 1.26278 10.2502 2.82117V38.1788C10.2502 39.7372 11.513 41 13.0721 41H27.9295C29.4872 41 30.7499 39.7372 30.7499 38.1788V2.82117C30.7491 1.26278 29.4865 0 27.9287 0ZM19.0894 3.08657H21.9113C22.1015 3.08657 22.2559 3.24097 22.2559 3.43119C22.2559 3.62141 22.1014 3.77581 21.9113 3.77581H19.0894C18.8991 3.77581 18.7448 3.62141 18.7448 3.43119C18.7448 3.24025 18.8992 3.08657 19.0894 3.08657ZM17.726 2.96043C17.9858 2.96043 18.1967 3.17134 18.1967 3.43119C18.1967 3.69176 17.9851 3.90267 17.726 3.90267C17.4661 3.90267 17.2559 3.69176 17.2559 3.43119C17.2559 3.17134 17.4661 2.96043 17.726 2.96043ZM15.9594 37.6054C15.9594 37.7004 15.8822 37.7777 15.7871 37.7777H14.3182C14.2231 37.7777 14.1459 37.7005 14.1459 37.6054V36.1744C14.1459 36.0793 14.2231 36.0021 14.3182 36.0021H15.7871C15.8822 36.0021 15.9594 36.0792 15.9594 36.1744V37.6054ZM20.9477 36.8899V37.7335H20.4487V37.158H20.0669V37.7335H19.6567V36.8643H19.3762L20.244 36.0468L21.28 36.8898H20.9477V36.8899ZM26.6178 37.7604H25.8981C25.8029 37.7604 25.7257 37.6832 25.7257 37.5881C25.7257 37.4929 25.8029 37.4157 25.8981 37.4157H26.6178C27.0727 37.4157 27.1622 37.3908 27.1622 37.1014C27.1622 36.8285 26.9499 36.7872 26.222 36.7872H25.8079V37.0422L25.0641 36.6121L25.8079 36.1826V36.4425H26.222C26.8542 36.4425 27.5068 36.4425 27.5068 37.1014C27.5068 37.7604 26.9926 37.7604 26.6178 37.7604ZM28.8703 33.6648H11.8321V5.45284H28.8703V33.6648Z" fill="black"/>
<path d="M14.9965 36.852H14.4906V37.433H15.6148V36.3467H14.9965V36.852Z" fill="black"/>
</svg>
