<svg width="41" height="41" viewBox="0 0 41 41" fill="none" xmlns="http://www.w3.org/2000/svg">
<g clip-path="url(#clip0)">
<path d="M40.5606 31.0941C39.0343 28.2089 33.7343 25.0804 33.501 24.9436C32.82 24.556 32.1093 24.3507 31.4442 24.3507C30.4554 24.3507 29.6459 24.8037 29.1556 25.6277C28.3804 26.555 27.4189 27.6388 27.1855 27.8068C25.3796 29.032 23.9658 28.8929 22.4016 27.3287L13.6714 18.5977C12.117 17.0434 11.9741 15.6122 13.191 13.8161C13.3613 13.5812 14.4451 12.619 15.3724 11.8429C15.9638 11.491 16.3696 10.9681 16.5475 10.3266C16.7839 9.47302 16.6098 8.46896 16.0519 7.49074C15.9204 7.26576 12.7905 1.96499 9.90673 0.439521C9.36859 0.154493 8.76205 0.0039978 8.15399 0.0039978C7.15221 0.0039978 6.20972 0.394677 5.50133 1.10231L3.57226 3.03062C0.521315 6.0808 -0.583074 9.53839 0.287972 13.3068C1.0146 16.4475 3.13217 19.7895 6.58292 23.2395L17.7598 34.4164C22.1272 38.7838 26.2909 40.9987 30.1354 40.9987C30.1354 40.9987 30.1354 40.9987 30.1361 40.9987C32.9636 40.9987 35.5996 39.797 37.9687 37.4278L39.897 35.4995C41.0691 34.3282 41.3351 32.5573 40.5606 31.0941Z" fill="black"/>
</g>
<defs>
<clipPath id="clip0">
<rect width="41" height="41" fill="white"/>
</clipPath>
</defs>
</svg>
