<svg width="34" height="34" viewBox="0 0 34 34" fill="none" xmlns="http://www.w3.org/2000/svg">
<g clip-path="url(#clip0)">
<path d="M33.4505 27.2678L23.1797 17L33.4505 6.73217C34.1799 5.99982 34.1799 4.81126 33.4505 4.08192L29.9149 0.549259C29.1825 -0.183086 27.994 -0.183086 27.2646 0.549259L16.9938 10.8171L6.72896 0.549259C5.99662 -0.183086 4.81106 -0.183086 4.07871 0.549259L0.549052 4.08192C-0.180291 4.81427 -0.180291 5.99982 0.549052 6.73217L10.8169 17L0.549052 27.2678C-0.180291 28.0002 -0.180291 29.1857 0.549052 29.9181L4.08172 33.4537C4.81406 34.1831 5.99962 34.1831 6.73196 33.4537L16.9968 23.1829L27.2676 33.4537C27.997 34.1831 29.1855 34.1831 29.9179 33.4537L33.4535 29.9181C34.1829 29.1857 34.1829 28.0002 33.4505 27.2678Z" fill="#030104"/>
</g>
<defs>
<clipPath id="clip0">
<rect width="34" height="34" fill="white"/>
</clipPath>
</defs>
</svg>
